<svg width="383pt" height="234pt" viewBox="-0.8 -0.8 384 235" xmlns="http://www.w3.org/2000/svg"><g id="fontsvg1678908835260" stroke-linecap="round" fill-rule="evenodd" stroke="#838371" stroke-width="0.4mm" fill="#d9e41a"><path d="M 204.529 85.752 L 192.383 94.846 L 180.298 97.898 L 160.583 93.32 L 142.395 75.132 A 78.392 78.392 0 0 0 130.835 70.399 Q 90.589 57.775 66.65 106.992 A 92.509 92.509 0 0 0 66.442 112.381 Q 66.084 153.139 104.553 164.548 Q 121.725 165.994 133.529 161.962 A 44.015 44.015 0 0 0 134.827 161.497 L 163.635 135.74 A 74.15 74.15 0 0 1 172.234 133.622 Q 186.386 131.066 196.96 135.74 A 40.427 40.427 0 0 1 207.602 145.874 A 36.425 36.425 0 0 1 213.623 159.971 A 35.06 35.06 0 0 1 213.684 162.045 Q 213.684 186.765 178.772 211.484 A 148.002 148.002 0 0 1 146.814 227.333 A 127.362 127.362 0 0 1 125.732 232.725 A 129.219 129.219 0 0 1 117.077 233.017 Q 80.969 233.017 48.811 212.4 A 155.778 155.778 0 0 1 40.894 206.968 A 152.306 152.306 0 0 1 18.247 181.46 A 106.267 106.267 0 0 1 0 137.266 L 0 102.415 Q 22.705 3.965 124.207 0.913 A 138.164 138.164 0 0 1 157.635 8.17 A 116.802 116.802 0 0 1 180.298 19.102 A 183.804 183.804 0 0 1 192.167 28.081 Q 210.905 43.605 212.097 55.479 A 69.038 69.038 0 0 1 212.629 60.332 Q 213.631 74.173 207.916 82.076 A 21.105 21.105 0 0 1 204.529 85.752 Z M 12.085 153.928 L 27.222 182.737 L 37.842 193.357 L 40.894 193.357 A 25.552 25.552 0 0 1 44.668 185.921 Q 49.261 179.832 57.367 178.405 A 27.428 27.428 0 0 1 59.082 178.159 L 98.45 193.357 L 130.31 193.357 L 145.447 188.779 L 160.583 178.159 A 190.013 190.013 0 0 1 159.779 171.873 Q 158.009 155.798 160.583 149.412 L 157.532 150.877 L 148.438 161.497 A 110.476 110.476 0 0 1 113.586 173.643 L 89.355 167.6 L 72.693 155.454 A 82.712 82.712 0 0 1 68.266 159.592 Q 60.751 166.074 56.03 166.074 A 92.508 92.508 0 0 1 49.392 164.001 Q 38.7 160.175 36.316 155.454 L 28.748 128.171 A 120.568 120.568 0 0 1 34.69 88.849 Q 47.33 52.102 86.863 36.964 A 146.801 146.801 0 0 1 113.586 29.722 Q 132.159 30.778 138.133 38.974 A 14.848 14.848 0 0 1 140.869 46.384 L 137.878 64.573 L 154.541 76.658 L 157.532 75.132 L 159.058 61.521 A 30.379 30.379 0 0 0 159.329 58.791 Q 159.539 54.786 158.538 51.514 A 15.81 15.81 0 0 0 154.541 44.858 L 151.489 34.238 L 154.541 25.144 L 160.583 17.576 L 140.869 10.007 L 90.881 11.533 A 114.276 114.276 0 0 0 41.379 39.478 Q 22.802 57.745 13.276 85.593 A 167.277 167.277 0 0 0 7.568 106.992 Q 6.214 124.439 10.824 147.898 A 257.509 257.509 0 0 0 12.085 153.928 Z M 233.582 35.825 L 232.056 123.35 L 232.056 204.587 L 235.168 209.287 L 238.281 209.287 A 16.671 16.671 0 0 1 245.322 198.282 A 27.736 27.736 0 0 1 250.793 195.249 L 316.406 193.662 Q 327.067 188.955 335.913 176.187 A 94.473 94.473 0 0 0 341.431 167.112 L 341.431 146.787 L 335.144 135.862 Q 324.219 134.275 317.993 140.562 L 321.106 157.712 A 27.543 27.543 0 0 1 307.789 171.628 A 38.046 38.046 0 0 1 303.894 173.337 A 75.421 75.421 0 0 0 298.849 172.389 Q 288.391 170.808 282.043 173.337 A 72.023 72.023 0 0 1 278.242 177.328 Q 271.426 183.912 266.811 183.912 A 5.672 5.672 0 0 1 263.306 182.737 Q 252.38 174.924 253.906 171.812 L 253.906 132.749 A 21.549 21.549 0 0 1 263.28 117.49 A 35.652 35.652 0 0 1 269.531 113.95 L 307.068 113.95 A 47.75 47.75 0 0 0 321.364 107.244 Q 333.04 98.949 336.077 83.745 A 52.335 52.335 0 0 0 336.731 79.587 L 336.731 63.962 A 22.413 22.413 0 0 0 333.697 58.218 Q 329.98 52.95 322.552 46.846 A 131.279 131.279 0 0 0 316.406 42.112 L 313.293 34.299 A 11.242 11.242 0 0 1 312.515 30.099 Q 312.515 24.021 318.211 15.792 A 62.785 62.785 0 0 1 319.519 13.975 L 311.707 9.275 L 252.38 10.862 A 33.358 33.358 0 0 0 243.293 15.354 Q 234.53 21.674 233.674 33.256 A 34.864 34.864 0 0 0 233.582 35.825 Z M 377.38 63.962 L 375.793 92.1 L 367.981 109.312 L 367.981 115.537 L 377.38 131.162 Q 383.634 151.193 381.871 163.168 A 26.326 26.326 0 0 1 380.493 168.638 Q 371.272 210.879 330.878 227.468 A 121.78 121.78 0 0 1 314.88 232.725 L 250.793 232.725 A 67.792 67.792 0 0 1 237.197 225.004 Q 218.354 210.907 221.817 187.231 A 59.716 59.716 0 0 1 222.656 182.737 L 224.243 32.712 A 42.615 42.615 0 0 1 232.431 15.785 Q 241.047 5.244 257.019 1.462 A 229.39 229.39 0 0 1 272.613 0.208 Q 316.394 -1.768 345.653 15.282 A 96.477 96.477 0 0 1 346.13 15.562 A 124.521 124.521 0 0 1 360.927 29.985 Q 375.174 46.605 377.38 63.962 Z M 272.644 32.712 L 296.082 34.299 A 40.634 40.634 0 0 1 302.364 40.457 A 31.043 31.043 0 0 1 307.068 48.337 L 303.894 62.437 L 314.88 76.475 A 13.117 13.117 0 0 1 306.82 89.109 Q 299.512 92.638 285.578 92.181 A 108.45 108.45 0 0 1 283.63 92.1 A 17.894 17.894 0 0 1 275.033 101.373 A 26.176 26.176 0 0 1 271.118 103.025 Q 256.87 103.025 254.295 91.352 A 22.942 22.942 0 0 1 253.906 88.987 L 257.019 45.225 A 102.442 102.442 0 0 1 260.299 40.797 Q 267.07 32.195 270.928 32.195 A 3.013 3.013 0 0 1 272.644 32.712 Z M 308.594 151.487 L 292.969 153.013 L 294.556 163.999 Q 305.704 165.088 308.898 163.007 A 2.514 2.514 0 0 0 310.181 160.825 L 308.594 151.487 Z M 300.781 71.775 L 294.556 73.362 L 296.082 82.7 Q 302.056 84.208 305.164 80.039 A 9.93 9.93 0 0 0 305.481 79.587 L 305.481 74.888 L 300.781 71.775 Z" vector-effect="non-scaling-stroke"/></g></svg>