<svg width="926" height="150" viewBox="0 0 926 150" fill="none" xmlns="http://www.w3.org/2000/svg">
<g clip-path="url(#clip0_7_67)">
<path d="M308.504 110.427L313.98 92.7235H348.715L354.191 110.427H379.472L347.439 9.75181H316.906L282.997 110.427H308.504ZM343.239 74.944H320.056L331.835 38.109L343.239 74.944ZM418.855 110.427V6.90361H394.85V110.429H418.855V110.427ZM468.368 146.286V107.317L468.44 107.384C469.195 108.081 470.001 108.705 470.862 109.258L471.295 109.527C474.946 111.728 479.497 112.827 484.947 112.827C491.2 112.827 497.063 111.278 502.539 108.177C508.015 105.076 512.442 100.599 515.816 94.7494C519.192 88.8976 520.88 81.8205 520.88 73.5181C520.88 65.1669 519.218 58.0645 515.892 52.2127C512.567 46.3608 508.253 41.8861 502.953 38.7849C497.65 35.6837 492.05 34.1331 486.147 34.1331C481.696 34.1331 477.496 35.2717 473.544 37.547C470.699 39.1843 468.25 41.5428 466.197 44.6205L465.901 45.0723L463.942 36.5331H444.362V146.286H468.368ZM481.121 90.9217C478.821 90.9217 476.694 90.497 474.745 89.6476C472.794 88.7982 471.243 87.6217 470.094 86.1217C468.942 84.6217 468.368 82.8705 468.368 80.8699V68.7163L468.375 68.2012C468.44 65.9855 468.928 64.0265 469.839 62.3169L470.056 61.9283C471.16 60.0227 472.788 58.4735 474.745 57.4645C476.744 56.4145 479.021 55.8885 481.571 55.8885C484.721 55.8885 487.436 56.6133 489.711 58.0645C491.986 59.5139 493.748 61.5651 494.999 64.2163C496.25 66.8657 496.875 69.9669 496.875 73.5181C496.875 77.7199 496.038 81.0958 494.363 83.6458C492.686 86.1958 490.636 88.0464 488.211 89.1976C485.784 90.347 483.422 90.9217 481.121 90.9217ZM554.263 27.0072C558.666 27.0072 562.141 25.8434 564.691 23.5193C567.243 21.1934 568.517 17.9042 568.517 13.6518C568.517 9.50241 567.243 6.18795 564.691 3.71205C562.143 1.23795 558.666 0 554.263 0C549.713 0 546.2 1.23795 543.724 3.71386C541.248 6.18976 540.01 9.50241 540.01 13.6536C540.01 17.9042 541.248 21.1934 543.724 23.5175C546.2 25.8434 549.713 27.0054 554.263 27.0054V27.0072ZM566.267 110.429V36.0813H542.262V110.425H566.267V110.429ZM617.882 110.429V79.2922L617.883 78.5295C617.941 73.4837 618.566 69.3578 619.759 66.15L619.944 65.6765C621.317 62.2518 623.157 59.7632 625.456 58.2126C627.686 56.6837 630.33 55.8722 633.033 55.8867C635.735 55.8867 638.034 56.8247 639.937 58.7006C641.835 60.5765 642.785 63.4645 642.785 67.3645V110.425H666.942V67.3663C666.942 60.9145 665.992 55.1892 664.091 50.1867C662.191 45.1861 659.229 41.259 655.201 38.409C651.176 35.559 645.988 34.1331 639.635 34.1331C634.083 34.1331 629.121 35.6837 624.744 38.7849C622.027 40.7096 619.669 43.3175 617.665 46.6102L617.459 46.9554L615.03 36.5331H593.874V110.427H617.88L617.882 110.429ZM719.979 112.827C726.082 112.827 731.469 111.728 736.147 109.527C740.822 107.326 744.622 104.351 747.55 100.599C750.474 96.8494 752.312 92.6729 753.062 88.0717H729.207C728.556 90.0235 727.407 91.4476 725.755 92.3476C724.107 93.2476 722.18 93.6976 719.979 93.6976C717.279 93.6976 715.042 93.0596 713.265 91.7855C711.491 90.5096 710.153 88.7223 709.253 86.4217C708.351 84.1211 707.901 81.3958 707.901 78.244L707.903 78.394H752.312C753.498 73.0879 753.727 67.9265 753.004 62.9114L752.876 62.0783C752 56.8012 750.151 52.0626 747.324 47.8626C744.498 43.6608 740.786 40.3229 736.185 37.847C731.583 35.3711 726.182 34.1331 719.979 34.1331C713.728 34.1331 707.878 35.6837 702.426 38.7849C696.975 41.8861 692.573 46.3482 689.222 52.1765C685.871 58.0012 684.198 64.9898 684.198 73.1422C684.198 81.2946 685.884 88.3464 689.26 94.2976C692.636 100.251 697.049 104.827 702.501 108.027C707.952 111.226 713.778 112.827 719.979 112.827ZM731.383 66.2422H708.01V66.2205C708.194 64.1693 708.604 62.3458 709.242 60.75L709.441 60.2765C710.466 57.9524 711.917 56.1759 713.791 54.9506C715.667 53.7253 717.879 53.1126 720.431 53.1126C722.732 53.1126 724.618 53.5753 726.095 54.5006C727.542 55.3965 728.721 56.6665 729.507 58.1765C730.319 59.7378 730.864 61.4236 731.121 63.1645C731.258 64.0663 731.343 64.959 731.374 65.8482L731.381 66.2422H731.383ZM778.569 111.777C783.321 111.777 787.246 110.34 790.347 107.463C793.448 104.59 794.999 100.925 794.999 96.4753C794.999 92.0223 793.448 88.3211 790.347 85.3717C787.246 82.4205 783.321 80.944 778.569 80.944C773.818 80.944 769.954 82.4205 766.98 85.3717C764.003 88.3211 762.516 92.0223 762.516 96.4735C762.516 100.874 764.003 104.527 766.98 107.425C769.954 110.328 773.818 111.777 778.569 111.777ZM824.406 27.0072C828.807 27.0072 832.282 25.8434 834.834 23.5193C837.384 21.1934 838.66 17.9042 838.66 13.6518C838.66 9.50241 837.384 6.18795 834.834 3.71205C832.282 1.23795 828.807 0 824.406 0C820.004 0 816.503 1.23795 813.903 3.71386C811.302 6.18976 810.003 9.50241 810.003 13.6536C810.003 17.9042 811.304 21.1934 813.903 23.5175C816.505 25.8434 820.004 27.0054 824.406 27.0054V27.0072ZM810.077 148.912C818.829 148.912 825.456 146.523 829.956 141.748C834.458 136.972 836.708 128.906 836.708 117.555V36.2331H812.553V117.103C812.553 121.404 811.79 124.281 810.265 125.731C808.739 127.182 806.426 127.907 803.325 127.907C800.925 127.907 798.324 127.556 795.523 126.857C792.722 126.155 790.246 125.38 788.095 124.531V145.16C791.502 146.099 794.93 146.962 798.375 147.748C801.774 148.525 805.676 148.912 810.077 148.912ZM892.823 112.827C899.025 112.827 904.575 111.678 909.476 109.375C914.377 107.077 918.241 104.087 921.068 100.411C923.892 96.7355 925.306 92.8482 925.306 88.7476C925.306 84.2458 923.854 80.494 920.954 77.494C918.053 74.494 914.077 71.9928 909.026 69.9922L888.622 61.8145C885.471 60.7157 883.895 59.2139 883.895 57.3145C883.895 55.9139 884.645 54.788 886.147 53.9386C887.647 53.0892 889.696 52.6626 892.297 52.6626C895.448 52.6626 897.7 53.25 899.048 54.4265C900.4 55.6012 901.074 56.9891 901.074 58.5885H923.056C923.005 51.4861 920.329 45.6361 915.028 41.0349C909.727 36.4337 902.15 34.1331 892.297 34.1331C881.797 34.1331 873.52 36.1572 867.465 40.209C861.415 44.2608 858.389 49.5614 858.389 56.1126C858.389 60.7645 859.826 64.7783 862.703 68.1542C865.577 71.5301 869.666 74.3169 874.969 76.5181L892.897 83.494C894.798 84.2458 896.198 84.9958 897.098 85.7458C897.998 86.4958 898.448 87.497 898.448 88.7458C898.448 89.6964 898.123 90.5855 897.473 91.4096C896.822 92.2355 895.848 92.8988 894.548 93.3976C893.247 93.8982 891.597 94.1476 889.597 94.1476C886.297 94.1476 883.683 93.6488 881.757 92.6476C879.832 91.6482 878.818 89.8464 878.721 87.2458H857.039C856.989 92.9982 858.476 97.762 861.503 101.537C864.529 105.314 868.741 108.139 874.143 110.013C879.545 111.891 885.771 112.827 892.823 112.827Z" fill="#FBD758"/>
<path d="M190.351 3.08676L244.734 57.2331L190.351 111.378L135.966 57.2331L190.351 3.08676Z" fill="#FBD758"/>
<path d="M54.3893 3.08676L167.135 115.337H58.3652L0.00439453 57.2331L54.3893 3.08676Z" fill="#D0B34B"/>
</g>
<defs>
<clipPath id="clip0_7_67">
<rect width="925.31" height="150" fill="white"/>
</clipPath>
</defs>
</svg>
