<svg width="300" height="300" viewBox="0 0 300 300" fill="none" xmlns="http://www.w3.org/2000/svg">
<g clip-path="url(#clip0_7_51)">
<path d="M119.531 133.594V87.3375H152.906C171.15 87.3375 181.819 95.9063 181.819 110.531C181.819 125.569 170.494 133.594 148.744 133.594H119.531ZM119.531 204.131H155.119C177.319 204.131 189.056 195.131 189.056 178.313C189.056 161.719 176.869 153.037 153.694 153.037H119.531V204.131V204.131Z" fill="#FBD758"/>
<path d="M75.0375 0C55.1463 0 36.0697 7.90176 22.0045 21.967C7.93926 36.0322 0.0374985 55.1088 0.0374985 75V225C0.0374985 244.891 7.93926 263.968 22.0045 278.033C36.0697 292.098 55.1463 300 75.0375 300H225.037C244.929 300 264.005 292.098 278.071 278.033C292.136 263.968 300.037 244.891 300.037 225V75C300.037 55.1088 292.136 36.0322 278.071 21.967C264.005 7.90176 244.929 0 225.037 0L75.0375 0V0ZM94.9125 225V66.4688H158.644C188.4 66.4688 206.325 81.6375 206.325 106.031C206.325 122.606 194.137 137.438 178.519 140.081V141.956C199.95 144.15 214.219 159.413 214.219 180.075C214.219 207.975 193.894 225 160.069 225H94.9125V225Z" fill="#FBD758"/>
</g>
<defs>
<clipPath id="clip0_7_51">
<rect width="300" height="300" fill="white"/>
</clipPath>
</defs>
</svg>
