<svg width="300" height="300" viewBox="0 0 300 300" fill="none" xmlns="http://www.w3.org/2000/svg">
<g clip-path="url(#clip0_7_38)">
<path d="M93.775 0H126V13.475H107.25V26.95H126V40.425H93.775V0ZM132.437 0H164.675V11.725H145.925V14.0625H164.675V41.0125H132.437V28.7125H151.187V26.3625H132.437V0ZM171.125 0H203.337V11.725H184.587V14.0625H203.337V41.0125H171.125V28.7125H189.875V26.3625H171.125V0Z" fill="#FBD758"/>
<path fill-rule="evenodd" clip-rule="evenodd" d="M149.888 300L63.0875 275.9L37.5 58.9625H262.5L236.925 275.875L149.888 300ZM88.0875 157.162L90.475 183.762H182.687L179.6 218.262L149.925 226.288H149.9L120.275 218.287L118.375 197.075H91.6625L95.3875 238.85L149.888 253.975L204.475 238.85L211.125 164.3L211.775 157.162L216.575 103.3H83.3L85.725 129.912H187.425L185 157.162H88.0875V157.162Z" fill="#FBD758"/>
</g>
<defs>
<clipPath id="clip0_7_38">
<rect width="300" height="300" fill="white"/>
</clipPath>
</defs>
</svg>
