<svg width="300" height="300" viewBox="0 0 300 300" fill="none" xmlns="http://www.w3.org/2000/svg">
<g clip-path="url(#clip0_7_57)">
<path d="M294.337 136.631L163.35 5.6625C161.557 3.86816 159.427 2.44476 157.083 1.47361C154.74 0.502474 152.228 0.00262451 149.691 0.00262451C147.154 0.00262451 144.642 0.502474 142.298 1.47361C139.954 2.44476 137.825 3.86816 136.031 5.6625L108.844 32.85L143.344 67.35C147.413 65.9608 151.79 65.7435 155.976 66.7228C160.163 67.7021 163.99 69.8387 167.02 72.8886C170.05 75.9385 172.162 79.779 173.115 83.9716C174.067 88.1643 173.822 92.5402 172.406 96.6L205.65 129.863C210.568 128.131 215.93 128.126 220.852 129.848C225.773 131.57 229.962 134.916 232.728 139.337C235.493 143.757 236.671 148.988 236.068 154.167C235.464 159.346 233.115 164.165 229.406 167.831C225.652 171.608 220.703 173.965 215.405 174.498C210.106 175.032 204.787 173.709 200.355 170.756C195.924 167.803 192.655 163.403 191.107 158.308C189.559 153.212 189.828 147.738 191.869 142.819L160.875 111.806V193.425C165.586 195.757 169.356 199.633 171.555 204.407C173.755 209.182 174.252 214.566 172.963 219.662C171.675 224.758 168.678 229.259 164.474 232.414C160.269 235.569 155.11 237.187 149.857 237C144.603 236.812 139.573 234.829 135.604 231.383C131.635 227.936 128.968 223.233 128.046 218.058C127.124 212.883 128.004 207.548 130.538 202.943C133.073 198.337 137.11 194.74 141.975 192.75V110.381C139.168 109.231 136.616 107.537 134.467 105.396C132.318 103.255 130.614 100.709 129.453 97.9065C128.292 95.1038 127.698 92.0991 127.704 89.0655C127.709 86.0319 128.316 83.0294 129.487 80.2313L95.4937 46.2187L5.68124 136.031C3.8869 137.825 2.46349 139.954 1.49235 142.298C0.521211 144.642 0.0213623 147.154 0.0213623 149.691C0.0213623 152.228 0.521211 154.74 1.49235 157.083C2.46349 159.427 3.8869 161.557 5.68124 163.35L136.669 294.337C138.462 296.132 140.592 297.555 142.935 298.526C145.279 299.498 147.791 299.997 150.328 299.997C152.865 299.997 155.377 299.498 157.721 298.526C160.065 297.555 162.194 296.132 163.987 294.337L294.356 163.969C297.976 160.344 300.008 155.432 300.008 150.309C300.008 145.187 297.976 140.275 294.356 136.65" fill="#FBD758"/>
</g>
<defs>
<clipPath id="clip0_7_57">
<rect width="300" height="300" fill="white"/>
</clipPath>
</defs>
</svg>
