<svg width="300" height="300" viewBox="0 0 300 300" fill="none" xmlns="http://www.w3.org/2000/svg">
<path d="M63.5 0H77.025V13.3625H89.4V0H102.925V40.45H89.4V26.9125H77.025V40.45H63.5125V0H63.5ZM120.7 13.4125H108.8V0H146.138V13.4125H134.225V40.45H120.7V13.4125V13.4125ZM152.063 0H166.163L174.838 14.2125L183.5 0H197.6V40.45H184.138V20.4L174.838 34.7875H174.6L165.287 20.4125V40.45H152.063V0V0ZM204.325 0H217.863V27.0875H236.862V40.4625H204.325V0V0Z" fill="#FBD758"/>
<path fill-rule="evenodd" clip-rule="evenodd" d="M63.075 275.9L37.5 58.9625H262.5L236.912 275.875L149.875 300L63.075 275.9ZM114.787 157.15L112.363 129.9H214.175L216.55 103.3H83.3L90.475 183.762H182.687L179.6 218.262L149.925 226.288H149.9L120.275 218.287L118.375 197.075H91.65L95.375 238.85L149.875 253.975L204.463 238.85L211.112 164.3L211.762 157.162H114.787V157.15Z" fill="#FBD758"/>
</svg>
