<svg width="300" height="300" viewBox="0 0 300 300" fill="none" xmlns="http://www.w3.org/2000/svg">
<path fill-rule="evenodd" clip-rule="evenodd" d="M0 0H300V300H0V0ZM229.338 251.5C215.425 251.5 207.562 244.25 201.525 234.375L178.612 247.688C186.887 264.038 203.8 276.513 229.988 276.513C256.763 276.513 276.7 262.613 276.7 237.225C276.7 213.688 263.175 203.225 239.225 192.938L232.175 189.925C220.075 184.675 214.838 181.263 214.838 172.8C214.838 165.963 220.088 160.725 228.338 160.725C236.425 160.725 241.638 164.138 246.475 172.8L268.425 158.712C259.138 142.375 246.263 136.137 228.338 136.137C203.163 136.137 187.05 152.238 187.05 173.388C187.05 196.325 200.55 207.187 220.9 215.85L227.95 218.875C240.813 224.5 248.475 227.925 248.475 237.587C248.475 245.662 241.013 251.5 229.338 251.5V251.5ZM120.088 251.312C110.4 251.312 106.362 244.687 101.937 236.812L78.9875 250.712C85.6375 264.787 98.7125 276.463 121.275 276.463C146.262 276.463 163.375 263.175 163.375 233.987V137.738H135.187V233.612C135.187 247.7 129.337 251.312 120.075 251.312H120.088Z" fill="#FBD758"/>
</svg>
