<svg width="300" height="300" viewBox="0 0 300 300" fill="none" xmlns="http://www.w3.org/2000/svg">
<path d="M295.556 67.875C295.65 68.2687 295.706 68.7094 295.706 69.0937V133.5C295.708 134.322 295.493 135.13 295.081 135.841C294.669 136.553 294.076 137.142 293.363 137.55L239.306 168.703V230.372C239.308 231.194 239.093 232.002 238.681 232.713C238.269 233.425 237.676 234.014 236.962 234.422L124.125 299.362C123.862 299.509 123.581 299.622 123.291 299.7L123 299.85C122.215 300.047 121.394 300.047 120.609 299.85C120.491 299.815 120.377 299.764 120.272 299.7C120.001 299.616 119.74 299.503 119.494 299.362L6.70312 234.422C5.98447 234.016 5.38526 233.428 4.96566 232.717C4.54605 232.006 4.32079 231.197 4.3125 230.372V37.1625C4.3125 36.7687 4.40625 36.3281 4.50937 35.9437C4.55625 35.7937 4.60313 35.7 4.65938 35.55L4.95 34.8187C4.99687 34.6687 5.14688 34.575 5.24063 34.425L5.68125 33.8344C5.83907 33.7369 5.98669 33.6238 6.12187 33.4969C6.31875 33.3469 6.45937 33.2062 6.65625 33.1031L63.0562 0.62811C63.7695 0.218523 64.5775 0.00299072 65.4 0.00299072C66.2224 0.00299072 67.0305 0.218523 67.7437 0.62811L124.191 33.1031C124.387 33.1969 124.528 33.3469 124.678 33.4969L125.166 33.8344C125.31 34.0223 125.441 34.2196 125.559 34.425C125.653 34.5187 125.803 34.6687 125.897 34.8187L126.188 35.55C126.234 35.7 126.337 35.7937 126.337 35.9437C126.479 36.3339 126.546 36.7475 126.534 37.1625V157.819L173.503 130.772V69.1031C173.521 68.5491 173.638 68.0028 173.85 67.4906L174.141 66.7594C174.234 66.5625 174.384 66.4687 174.478 66.3187C174.628 66.1219 174.722 65.925 174.872 65.7844C175.022 65.6437 175.209 65.5406 175.359 65.4469C175.5 65.2908 175.665 65.1579 175.847 65.0531L232.294 32.5781C232.999 32.1454 233.81 31.9163 234.638 31.9163C235.465 31.9163 236.276 32.1454 236.981 32.5781L293.381 65.0531C293.578 65.1469 293.719 65.2969 293.916 65.4469C294.066 65.5406 294.206 65.6437 294.356 65.7844C294.506 65.925 294.647 66.1219 294.797 66.3187C294.891 66.4687 295.041 66.5625 295.088 66.7594C295.238 67.0031 295.284 67.2469 295.378 67.4906C295.472 67.5844 295.528 67.7344 295.575 67.8844L295.556 67.875ZM286.275 130.762V77.25L266.55 88.575L239.306 104.297V157.809L286.275 130.762ZM229.931 227.634V174.066L203.072 189.347L126.506 233.1V287.156L229.931 227.634ZM13.6687 45.3094V227.634L117.084 287.156V233.1L63.0281 202.481C62.8313 202.387 62.6906 202.237 62.5406 202.087C62.3906 201.994 62.2031 201.891 62.1 201.75H62.0531C61.9031 201.6 61.8094 201.412 61.6594 201.262C61.5656 201.112 61.4156 200.972 61.3219 200.775C61.2127 200.591 61.1306 200.392 61.0781 200.184C60.9844 199.987 60.8812 199.847 60.8344 199.65C60.7875 199.453 60.7406 199.209 60.7406 198.966C60.6938 198.769 60.6469 198.628 60.6469 198.431V72.3562L33.4031 56.6344L13.6687 45.3094ZM65.3812 10.1062L18.4125 37.1531L65.3812 64.2L112.35 37.1531L65.3812 10.1062ZM89.8406 178.959L117.084 163.237V45.3187L97.3594 56.6437L70.0687 72.3656V190.284L89.8406 178.959ZM234.619 42.0375L187.594 69.0844L234.619 96.1312L281.588 69.0844L234.619 42.0375ZM229.931 104.297L182.906 77.25V130.762L210.15 146.484L229.922 157.809L229.931 104.297ZM121.781 224.953L225.15 165.966L178.228 138.919L74.9062 198.394L121.781 224.953Z" fill="#FBD758"/>
</svg>
