<svg width="300" height="300" viewBox="0 0 300 300" fill="none" xmlns="http://www.w3.org/2000/svg">
<path d="M150.013 0C77.175 0 18.1 61.9625 18.1 138.4C18.1 164.525 25 188.925 36.975 209.775C40.1 213.263 43.775 215.825 49.0375 215.825C65.775 215.825 64.8875 190.013 81.625 190.013C98.375 190.013 99.2625 215.825 116 215.825C132.75 215.825 131.825 190.013 148.575 190.013C155.875 190.013 160.175 194.975 164.075 200.513C161.313 197.95 158.075 196.163 153.825 196.163C138.875 196.163 137.487 217.138 126.312 222.925V279.3C126.499 284.665 128.762 289.749 132.623 293.479C136.485 297.208 141.644 299.293 147.012 299.293C152.381 299.293 157.54 297.208 161.402 293.479C165.263 289.749 167.526 284.665 167.712 279.3V205.625C171.562 211.038 175.8 215.813 182.962 215.813C199.712 215.813 198.8 190 215.537 190C221.35 190 225.213 193.188 228.538 197.25C226.837 196.529 225.01 196.155 223.162 196.15C208.675 196.15 206.95 215.825 196.687 222.325V252.775C196.687 257.715 198.65 262.452 202.143 265.945C205.636 269.438 210.373 271.4 215.312 271.4C220.252 271.4 224.989 269.438 228.482 265.945C231.975 262.452 233.937 257.715 233.937 252.775V204.625C237.987 210.45 242.312 215.8 249.912 215.8C259.862 215.8 263.575 206.7 268.475 199.3C277.362 180.226 281.945 159.43 281.9 138.388C281.9 61.9625 222.85 0 150 0H150.013ZM142.938 35.9625C178.938 35.9625 208.112 70.7625 208.112 108.55C208.112 146.338 188.8 172.925 142.938 172.925C97.0625 172.925 77.75 146.338 77.75 108.55C77.75 70.7625 106.938 35.9625 142.938 35.9625V35.9625ZM125.4 56.7125C118.919 56.7125 112.703 59.5545 108.12 64.6133C103.537 69.6721 100.962 76.5333 100.962 83.6875C100.962 90.8417 103.537 97.7029 108.12 102.762C112.703 107.821 118.919 110.663 125.4 110.663C131.881 110.663 138.097 107.821 142.68 102.762C147.263 97.7029 149.838 90.8417 149.838 83.6875C149.838 76.5333 147.263 69.6721 142.68 64.6133C138.097 59.5545 131.881 56.7125 125.4 56.7125ZM121.325 65.0125C122.931 65.0108 124.522 65.3316 126.007 65.9565C127.492 66.5815 128.841 67.4983 129.977 68.6545C131.114 69.8108 132.016 71.1838 132.631 72.6952C133.246 74.2065 133.563 75.8265 133.563 77.4625C133.563 79.0985 133.246 80.7185 132.631 82.2299C132.016 83.7412 131.114 85.1142 129.977 86.2705C128.841 87.4267 127.492 88.3435 126.007 88.9685C124.522 89.5934 122.931 89.9142 121.325 89.9125C118.085 89.9091 114.979 88.596 112.689 86.2615C110.399 83.927 109.112 80.7622 109.113 77.4625C109.112 74.1628 110.399 70.998 112.689 68.6635C114.979 66.3291 118.085 65.0159 121.325 65.0125V65.0125ZM84.45 196.163C71.025 196.163 68.55 213.1 60.075 220.725V243C60.075 247.94 62.0373 252.677 65.5301 256.17C69.023 259.663 73.7603 261.625 78.7 261.625C83.6397 261.625 88.377 259.663 91.8699 256.17C95.3627 252.677 97.325 247.94 97.325 243V203.225C94.025 199.175 90.1125 196.175 84.45 196.175V196.163Z" fill="#FBD758"/>
</svg>
