<svg width="300" height="300" viewBox="0 0 300 300" fill="none" xmlns="http://www.w3.org/2000/svg">
<g clip-path="url(#clip0_1_6)">
<path d="M200.593 126.083C188.245 71.6133 162.511 57.1125 155.946 46.8621C153.239 42.3465 150.841 37.6525 148.768 32.8125C148.421 37.6523 147.784 40.6992 143.671 44.3695C135.413 51.7324 100.338 80.3145 97.3863 142.205C94.6359 199.91 139.808 235.492 145.775 239.17C150.364 241.429 155.953 239.218 158.68 237.145C180.455 222.202 210.206 182.36 200.617 126.083" fill="#FBD758"/>
<path d="M150.639 208.443C149.502 222.725 148.688 231.025 145.8 239.187C145.8 239.187 147.695 252.784 149.026 267.188H153.736C154.859 257.044 156.575 246.976 158.873 237.033C152.776 234.033 150.873 220.976 150.639 208.443Z" fill="#D0B34B"/>
<path d="M158.865 237.041C152.704 234.195 150.921 220.862 150.647 208.443C152.17 187.955 152.615 167.401 151.978 146.866C151.655 136.092 152.13 47.0719 149.324 34.0383C151.244 38.4526 153.456 42.7339 155.946 46.8539C162.511 57.1125 188.254 71.6133 200.593 126.083C210.206 182.264 180.616 222 158.865 237.041Z" fill="#D0B34B"/>
</g>
<defs>
<clipPath id="clip0_1_6">
<rect width="300" height="300" fill="white"/>
</clipPath>
</defs>
</svg>
