<svg width="300" height="300" viewBox="0 0 300 300" fill="none" xmlns="http://www.w3.org/2000/svg">
<g clip-path="url(#clip0_7_45)">
<path d="M205.078 70.95C203.616 70.95 202.641 71.1469 201.656 71.3906V71.5406H201.806C202.491 72.8063 203.616 73.7906 204.488 74.9625C205.172 76.2844 205.753 77.6438 206.391 78.9656L206.588 78.7688C207.759 77.9344 208.35 76.6219 208.35 74.6156C207.863 74.025 207.759 73.3969 207.328 72.8531C206.841 72.0188 205.763 71.5875 205.078 70.95ZM72.1219 235.884H60.5532C60.2028 217.47 59.08 199.079 57.1875 180.759H57.0938L39.4688 235.884H30.6281L13.1438 180.759H12.9938C11.635 199.106 10.8222 217.489 10.5563 235.884H0.00939941C0.580488 212.767 2.29194 189.692 5.13752 166.744H19.4907L36.1875 217.528H36.2813L53.1281 166.744H66.7969C69.825 191.944 71.6344 214.987 72.1688 235.884H72.1219ZM122.316 184.866C117.628 210.45 111.375 229.059 103.716 240.628C97.6594 249.563 91.0688 254.053 83.8875 254.053C81.9844 254.053 79.6406 253.462 76.8094 252.291V246.141C78.225 246.337 79.8375 246.478 81.6469 246.478C85.0125 246.478 87.7031 245.503 89.7563 243.694C92.1938 241.444 93.4219 238.913 93.4219 236.128C93.4219 234.178 92.4938 230.269 90.5438 224.316L77.8969 184.866H89.2781L98.3625 214.359C100.416 221.1 101.297 225.741 100.903 228.422C105.928 215.137 109.397 200.588 111.356 184.866H122.316ZM276.413 235.884H243.506V166.744H254.588V227.391H276.413V235.884ZM234.909 237.553L222.216 231.3C223.341 230.372 224.409 229.35 225.394 228.178C230.813 221.878 233.503 212.456 233.503 200.053C233.503 177.15 224.522 165.731 206.55 165.731C197.756 165.731 190.875 168.609 185.944 174.422C180.572 180.769 177.834 190.144 177.834 202.5C177.834 214.659 180.225 223.547 185.016 229.256C189.413 234.338 196.003 236.925 204.844 236.925C208.116 236.925 211.144 236.531 213.881 235.706L230.438 245.372L234.975 237.563L234.909 237.553ZM193.753 222.019C190.922 217.528 189.553 210.3 189.553 200.334C189.553 182.906 194.831 174.216 205.425 174.216C210.947 174.216 215.044 176.316 217.631 180.469C220.416 185.006 221.831 192.141 221.831 202.003C221.831 219.534 216.506 228.375 205.959 228.375C200.391 228.375 196.341 226.275 193.706 222.122L193.753 222.019ZM173.044 216.75C173.044 222.609 170.897 227.447 166.547 231.15C162.253 234.909 156.534 236.813 149.259 236.813C142.472 236.813 135.975 234.666 129.581 230.363L132.563 224.409C138.028 227.147 142.959 228.516 147.459 228.516C151.613 228.516 154.884 227.588 157.228 225.778C159.572 223.922 160.988 221.334 160.988 218.063C160.988 213.956 158.109 210.441 152.878 207.516C148.041 204.834 138.328 199.313 138.328 199.313C133.05 195.459 130.463 191.353 130.463 184.566C130.463 178.95 132.413 174.459 136.322 171.038C140.278 167.522 145.303 165.816 151.556 165.816C157.777 165.762 163.876 167.546 169.088 170.944L166.406 176.897C162.217 175.052 157.699 174.073 153.122 174.019C149.559 174.019 146.822 174.9 144.919 176.606C143.016 178.313 141.844 180.459 141.844 183.15C141.844 187.256 144.778 190.772 150.141 193.791C155.072 196.472 164.981 202.144 164.981 202.144C170.4 205.95 173.091 210.056 173.091 216.741L173.044 216.75ZM290.288 143.559C283.594 143.409 278.419 144.094 274.078 145.95C272.859 146.438 270.853 146.438 270.656 148.003C271.341 148.688 271.434 149.766 272.025 150.684C273.047 152.344 274.763 154.594 276.375 155.766C278.138 157.134 279.891 158.503 281.7 159.675C284.972 161.681 288.638 162.853 291.853 164.85C293.663 166.022 295.519 167.531 297.319 168.759C298.247 169.397 298.828 170.522 300 170.906V170.663C299.409 169.931 299.269 168.853 298.678 167.981C297.844 167.147 297.019 166.416 296.184 165.591C293.739 162.345 290.808 159.495 287.494 157.144C284.813 155.334 278.953 152.794 277.875 149.719L277.725 149.522C279.534 149.372 281.681 148.688 283.434 148.2C286.266 147.469 288.9 147.609 291.834 146.878C293.181 146.529 294.516 146.138 295.838 145.706V144.975C294.328 143.466 293.203 141.413 291.638 139.997C287.323 136.222 282.718 132.792 277.866 129.741C275.231 128.034 271.913 126.956 269.128 125.541C268.153 125.053 266.447 124.809 265.903 123.975C264.394 122.119 263.513 119.728 262.434 117.525C259.982 112.759 257.702 107.906 255.6 102.975C254.091 99.7031 253.209 96.4781 251.353 93.45C242.756 79.2375 233.381 70.65 219.028 62.2031C215.953 60.4406 212.241 59.7094 208.331 58.7813C206.231 58.6875 204.178 58.5375 202.078 58.4438C200.709 57.8531 199.397 56.2969 198.225 55.5094C193.444 52.4813 181.134 45.9844 177.666 54.5813C175.416 60.0469 180.984 65.3719 182.944 68.1094C184.359 70.0594 186.169 72.2156 187.191 74.3625C187.781 75.825 187.922 77.3438 188.513 78.8531C189.834 82.5188 191.1 86.6156 192.863 90.0375C193.791 91.8 194.766 93.6469 195.938 95.2125C196.622 96.1406 197.794 96.5344 198.038 98.0438C196.866 99.75 196.772 102.244 196.134 104.297C193.106 113.766 194.278 125.438 198.525 132.422C199.894 134.522 203.063 139.116 207.319 137.353C211.078 135.844 210.253 131.1 211.322 126.9C211.566 125.878 211.416 125.241 211.913 124.556V124.753C213.131 127.097 214.303 129.347 215.381 131.691C217.922 135.797 222.459 140.044 226.219 142.875C228.225 144.384 229.781 146.981 232.275 147.9V147.656H232.078C231.544 146.925 230.859 146.578 230.175 145.997C228.592 144.429 227.122 142.749 225.778 140.972C222.309 136.284 219.188 131.109 216.45 125.784C215.131 123.153 213.927 120.466 212.841 117.731C212.353 116.756 212.353 115.238 211.519 114.75C210.253 116.559 208.397 118.116 207.516 120.413C205.903 123.975 205.753 128.419 205.125 133.013C204.834 133.106 204.975 133.013 204.834 133.209C202.153 132.525 201.225 129.788 200.241 127.444C197.7 121.491 197.306 111.966 199.463 105.131C200.053 103.369 202.538 97.8563 201.563 96.1969C201.028 94.5844 199.369 93.6563 198.488 92.3906C197.363 90.825 196.238 88.8281 195.459 87.0656C193.453 82.3781 192.478 77.2031 190.284 72.5156C189.309 70.3688 187.547 68.1188 186.131 66.1219C184.519 63.8719 182.766 62.2688 181.538 59.625C181.097 58.6969 180.516 57.1875 181.2 56.2031C181.35 55.5188 181.688 55.275 182.372 55.0781C183.45 54.15 186.572 55.3219 187.65 55.8563C190.725 57.075 193.313 58.2469 195.9 60.0094C197.072 60.8438 198.338 62.4 199.856 62.8406H201.619C204.3 63.4313 207.281 62.9906 209.775 63.7688C214.219 65.1844 218.222 67.2375 221.831 69.4781C232.869 76.5637 241.846 86.4325 247.856 98.0906C248.878 99.9938 249.319 101.756 250.247 103.753C251.953 107.906 254.156 112.05 255.909 116.006C257.663 119.963 259.331 123.966 261.863 127.238C263.128 129 268.116 129.919 270.403 130.8C272.063 131.578 274.65 132.263 276.113 133.144C278.991 134.906 281.822 136.903 284.513 138.853C285.881 139.781 290.034 141.881 290.278 143.541L290.288 143.559Z" fill="#FBD758"/>
</g>
<defs>
<clipPath id="clip0_7_45">
<rect width="300" height="300" fill="white"/>
</clipPath>
</defs>
</svg>
