<svg width="375" height="300" viewBox="0 0 375 300" fill="none" xmlns="http://www.w3.org/2000/svg">
<path d="M185.332 264.679C184.102 264.679 182.871 264.327 181.758 263.741L170.508 257.062C168.809 256.124 169.629 255.773 170.215 255.597C172.441 254.835 172.91 254.659 175.312 253.253C175.547 253.136 175.898 253.195 176.133 253.312L184.805 258.468C185.098 258.644 185.566 258.644 185.859 258.468L219.727 238.898C220.02 238.722 220.254 238.37 220.254 237.96V198.878C220.254 198.468 220.078 198.116 219.727 197.941L185.859 178.429C185.566 178.253 185.156 178.253 184.805 178.429L150.938 197.941C150.586 198.116 150.41 198.527 150.41 198.878V237.96C150.41 238.312 150.645 238.663 150.938 238.839L160.195 244.171C165.234 246.691 168.34 243.702 168.34 240.773V202.159C168.34 201.632 168.75 201.163 169.336 201.163H173.613C174.141 201.163 174.609 201.574 174.609 202.159V240.773C174.609 247.511 170.977 251.32 164.59 251.32C162.656 251.32 161.074 251.32 156.797 249.21L147.891 244.113C145.723 242.824 144.316 240.48 144.316 237.96V198.878C144.316 196.359 145.664 193.956 147.891 192.726L181.758 173.156C183.926 171.925 186.738 171.925 188.848 173.156L222.715 192.726C224.883 194.015 226.289 196.359 226.289 198.878V237.96C226.289 240.48 224.941 242.882 222.715 244.113L188.848 263.683C187.852 264.327 186.621 264.679 185.332 264.679ZM212.695 226.124C212.695 218.8 207.773 216.866 197.344 215.46C186.797 214.054 185.742 213.351 185.742 210.89C185.742 208.839 186.621 206.144 194.414 206.144C201.387 206.144 203.965 207.667 205.02 212.355C205.137 212.824 205.488 213.116 205.957 213.116H210.352C210.645 213.116 210.879 212.999 211.055 212.824C211.23 212.589 211.348 212.355 211.289 212.062C210.586 203.976 205.254 200.226 194.414 200.226C184.746 200.226 179.004 204.327 179.004 211.124C179.004 218.566 184.746 220.558 194.004 221.495C205.078 222.609 205.957 224.191 205.957 226.359C205.957 230.167 202.91 231.749 195.762 231.749C186.797 231.749 184.805 229.523 184.16 225.07C184.102 224.601 183.691 224.249 183.164 224.249H178.77C178.242 224.249 177.773 224.659 177.773 225.245C177.773 230.929 180.879 237.726 195.703 237.726C206.543 237.726 212.695 233.507 212.695 226.124ZM244.629 196.769C244.629 200.343 241.699 203.273 238.125 203.273C234.551 203.273 231.621 200.343 231.621 196.769C231.621 193.077 234.668 190.265 238.125 190.265C241.641 190.206 244.629 193.077 244.629 196.769ZM243.574 196.769C243.574 193.722 241.113 191.32 238.066 191.32C235.078 191.32 232.617 193.722 232.617 196.769C232.617 199.816 235.078 202.277 238.066 202.277C241.113 202.218 243.574 199.757 243.574 196.769ZM240.938 200.402H239.414C239.355 200.05 239.121 198.175 239.121 198.116C239.004 197.706 238.887 197.472 238.359 197.472H237.07V200.402H235.664V193.077H238.184C239.062 193.077 240.762 193.077 240.762 195.011C240.762 196.359 239.883 196.652 239.355 196.827C240.352 196.886 240.41 197.531 240.586 198.468C240.645 199.054 240.762 200.05 240.938 200.402ZM239.297 195.245C239.297 194.249 238.594 194.249 238.242 194.249H237.07V196.3H238.184C239.121 196.3 239.297 195.656 239.297 195.245ZM80.4492 111.749C80.4492 110.167 79.6289 108.761 78.2812 107.999L42.3633 87.3157C41.7773 86.9641 41.0742 86.7884 40.3711 86.7298H40.0195C39.3164 86.7298 38.6719 86.9641 38.0273 87.3157L2.16797 107.999C0.820312 108.761 0 110.226 0 111.749L0.0585938 167.413C0.0585938 168.175 0.46875 168.878 1.11328 169.288C1.75781 169.699 2.57812 169.699 3.28125 169.288L24.6094 157.042C25.957 156.222 26.7773 154.816 26.7773 153.292V127.277C26.7773 125.753 27.5977 124.288 28.9453 123.527L38.0273 118.312C38.7305 117.902 39.4336 117.726 40.1953 117.726C40.957 117.726 41.7188 117.902 42.3633 118.312L51.4453 123.527C52.793 124.288 53.6133 125.753 53.6133 127.277V153.292C53.6133 154.816 54.4336 156.281 55.7812 157.042L77.1094 169.288C77.7539 169.699 78.6328 169.699 79.2773 169.288C79.9219 168.937 80.332 168.175 80.332 167.413L80.4492 111.749ZM276.855 50.9876V154.347C276.855 155.87 276.035 157.335 274.688 158.097L238.77 178.839C237.422 179.601 235.781 179.601 234.434 178.839L198.516 158.097C197.168 157.335 196.348 155.87 196.348 154.347V112.863C196.348 111.339 197.168 109.874 198.516 109.113L234.434 88.3704C235.781 87.6087 237.422 87.6087 238.77 88.3704L247.734 93.5266C248.73 94.1126 250.02 93.3509 250.02 92.2376V37.1595C250.02 35.5188 251.777 34.4641 253.242 35.2845L274.629 47.2376C275.977 47.9407 276.855 49.4056 276.855 50.9876ZM249.902 126.515C249.902 126.105 249.668 125.753 249.375 125.577L237.07 118.429C236.719 118.253 236.309 118.253 235.957 118.429L223.652 125.577C223.301 125.753 223.125 126.105 223.125 126.515V140.753C223.125 141.163 223.359 141.515 223.652 141.691L235.957 148.781C236.309 148.956 236.719 148.956 237.012 148.781L249.316 141.691C249.668 141.515 249.844 141.163 249.844 140.753V126.515H249.902ZM372.832 126.105C374.18 125.343 375 123.878 375 122.355V112.335C375 110.812 374.18 109.347 372.832 108.585L337.148 87.843C335.801 87.0813 334.16 87.0813 332.812 87.843L296.895 108.585C295.547 109.347 294.727 110.812 294.727 112.335V153.82C294.727 155.402 295.547 156.808 296.895 157.57L332.578 177.902C333.867 178.663 335.508 178.663 336.855 177.902L358.418 165.89C359.883 165.07 359.883 162.96 358.418 162.14L322.266 141.398C321.562 140.988 321.152 140.284 321.152 139.523V126.515C321.152 125.753 321.562 125.05 322.266 124.64L333.516 118.136C334.16 117.726 335.039 117.726 335.684 118.136L346.934 124.64C347.578 125.05 348.047 125.753 348.047 126.515V136.71C348.047 138.351 349.863 139.406 351.328 138.585L372.832 126.105ZM327.539 128.156C327.305 128.331 327.129 128.566 327.129 128.859V136.827C327.129 137.12 327.305 137.413 327.539 137.531L334.453 141.515C334.688 141.691 335.039 141.691 335.273 141.515L342.188 137.531C342.422 137.355 342.598 137.12 342.598 136.827V128.859C342.598 128.566 342.422 128.273 342.188 128.156L335.273 124.171C335.039 123.995 334.688 123.995 334.453 124.171L327.539 128.156ZM178.594 153.644V112.394C178.594 110.87 177.656 109.406 176.309 108.644L140.508 88.0188C139.277 87.3157 137.578 87.1985 136.172 88.0188L100.371 108.644C99.0234 109.406 98.0859 110.812 98.0859 112.394V153.644C98.0859 155.284 99.1992 156.691 100.43 157.394L136.289 178.019C137.695 178.839 139.336 178.781 140.625 178.019L176.367 157.394C177.422 156.808 178.184 155.812 178.477 154.64C178.535 154.347 178.594 153.995 178.594 153.644ZM135.059 80.4602L134.59 80.7532H135.234L135.059 80.4602ZM179.707 156.749L179.473 156.339V156.866L179.707 156.749Z" fill="#FBD758"/>
</svg>
