<svg width="300" height="300" viewBox="0 0 300 300" fill="none" xmlns="http://www.w3.org/2000/svg">
<path d="M150 68.75C65.8875 68.75 0 104.438 0 150C0 195.562 65.8875 231.25 150 231.25C234.113 231.25 300 195.562 300 150C300 104.438 234.113 68.75 150 68.75ZM134.425 93.75H150.8L145.6 118.75H160.225C169.5 118.75 175.725 120.05 179.275 123.287C182.738 126.487 183.788 131.738 182.4 138.888L175.9 168.75H159.25L165.237 141.138C165.962 137.35 165.675 134.713 164.4 133.325C163.138 131.938 160.35 131.25 156.175 131.25H143.062L135.15 168.75H118.75L134.425 93.75V93.75ZM62.5 118.75H95.825C111.712 118.75 121.338 129.4 117.575 145.288C113.2 163.75 101.5 168.75 79.95 168.75H69.65L66.3875 187.5H49.825L62.5 118.75ZM193.75 118.75H227.075C242.963 118.75 252.588 129.4 248.825 145.288C244.45 163.75 232.737 168.75 211.2 168.75H200.9L197.637 187.5H181.075L193.75 118.75ZM76.6875 131.25L71.975 156.25H82.6625C91.9125 156.25 100.513 155.2 101.95 141.4C102.488 136.063 100.262 131.25 89.575 131.25H76.6875ZM207.938 131.25L203.225 156.25H213.913C223.163 156.25 231.763 155.2 233.2 141.4C233.738 136.063 231.525 131.25 220.825 131.25H207.938V131.25Z" fill="#FBD758"/>
</svg>
