<svg width="499" height="300" viewBox="0 0 499 300" fill="none" xmlns="http://www.w3.org/2000/svg">
<path d="M249.355 0C182.862 0 141.302 33.2474 124.68 99.7403C149.615 66.4929 178.705 54.0253 211.952 62.3377C230.921 67.0792 244.479 80.8422 259.487 96.074C283.935 120.89 312.228 149.61 374.03 149.61C440.523 149.61 482.083 116.363 498.706 49.8701C473.771 83.1175 444.68 95.5851 411.433 87.2727C392.465 82.5312 378.906 68.7682 363.898 53.5364C339.45 28.7201 311.157 0 249.355 0ZM124.68 149.61C58.1868 149.61 16.6271 182.858 0.0043335 249.351C24.9394 216.103 54.0297 203.636 87.2771 211.948C106.245 216.69 119.804 230.453 134.811 245.684C159.26 270.501 187.553 299.221 249.355 299.221C315.848 299.221 357.408 265.973 374.03 199.481C349.095 232.728 320.005 245.195 286.758 236.883C267.789 232.142 254.231 218.379 239.223 203.147C214.775 178.331 186.482 149.61 124.68 149.61Z" fill="url(#paint0_linear_7_74)"/>
<defs>
<linearGradient id="paint0_linear_7_74" x1="-13.8496" y1="95.7507" x2="416.86" y2="344.091" gradientUnits="userSpaceOnUse">
<stop stop-color="#D0B34B"/>
<stop offset="1" stop-color="#FBD758"/>
</linearGradient>
</defs>
</svg>
