<svg width="300" height="300" viewBox="0 0 300 300" fill="none" xmlns="http://www.w3.org/2000/svg">
<g clip-path="url(#clip0_1_2)">
<path d="M229.688 0H70.3125C31.48 0 0 31.48 0 70.3125V229.688C0 268.52 31.48 300 70.3125 300H229.688C268.52 300 300 268.52 300 229.688V70.3125C300 31.48 268.52 0 229.688 0Z" fill="#FBD758"/>
<path d="M66.341 150.995L66.2461 163.281H105.293V274.233H132.914V163.281H171.961V151.233C171.961 144.566 171.819 138.995 171.628 138.852C171.485 138.662 147.723 138.566 118.914 138.614L66.4852 138.757L66.341 150.995ZM242.071 138.408C249.689 140.313 255.499 143.694 260.832 149.217C263.595 152.17 267.689 157.552 268.023 158.837C268.118 159.218 255.07 167.98 247.166 172.884C246.88 173.075 245.736 171.837 244.451 169.932C240.594 164.313 236.546 161.884 230.355 161.456C221.261 160.836 215.404 165.599 215.452 173.551C215.452 175.884 215.784 177.265 216.737 179.17C218.736 183.313 222.451 185.789 234.118 190.836C255.594 200.075 264.784 206.17 270.499 214.836C276.88 224.503 278.309 239.932 273.975 251.408C269.214 263.884 257.404 272.36 240.784 275.17C235.642 276.075 223.451 275.932 217.928 274.932C205.88 272.789 194.452 266.837 187.404 259.028C184.642 255.98 179.261 248.027 179.595 247.455C179.736 247.266 180.975 246.504 182.355 245.694C183.689 244.932 188.738 242.027 193.499 239.265L202.118 234.265L203.927 236.932C206.452 240.789 211.975 246.075 215.309 247.836C224.879 252.885 238.023 252.17 244.499 246.361C247.261 243.837 248.404 241.218 248.404 237.361C248.404 233.884 247.975 232.361 246.165 229.741C243.832 226.409 239.071 223.598 225.546 217.741C210.07 211.075 203.404 206.932 197.309 200.36C193.785 196.552 190.451 190.455 189.07 185.36C187.928 181.123 187.642 170.503 188.546 166.218C191.736 151.266 203.023 140.837 219.308 137.741C224.595 136.741 236.879 137.122 242.071 138.408Z" fill="#242424"/>
</g>
<defs>
<clipPath id="clip0_1_2">
<rect width="300" height="300" fill="white"/>
</clipPath>
</defs>
</svg>
